<svg xmlns="http://www.w3.org/2000/svg" viewBox="0 0 451.61 158.61"><defs><style>.cls-1{fill:#fff;}.cls-2{fill:#fac435;}.cls-3{fill:#f3c219;}.cls-4{fill:#ffc538;}</style></defs><g id="Layer_2" data-name="Layer 2"><g id="Layer_1-2" data-name="Layer 1"><path d="M283.83,6.9c11.45,10.13,7.32,22-10.37,28.22L273.3,54.2l-35.91-.3.14-16.85C231.88,32.26,226,29.47,224,25s-2.22-12.28.5-15.6c3.33-4.07,10.45-5.22,16.09-7.18C244,1,247.68.7,251.25,0l8.61.07c3.81.71,7.72,1.11,11.41,2.22,4.39,1.32,8.59,3.25,12.87,4.92-9.35-1.67-18.7-3.35-28.06-5a9.56,9.56,0,0,0-2.49.47c-5.62.72-11.22,1.79-16.86,2-6.71.27-11,3.59-12.48,9.64-1.61,6.4.91,11.87,6.71,15.19,2.32,1.32,5.31,1.47,8,2.15.43,3.52.84,6.78,1.25,10.1l30.26.25c.6-3.81,1.1-7.06,1.57-10.09,14.13-2.27,18.68-9.44,13.64-20.43C285,10,284.44,8.45,283.83,6.9ZM255,51.57v.1c4.26,0,8.54.22,12.79,0,1,0,2-1.4,3-2.15-.92-1.16-1.8-3.29-2.76-3.33q-12.78-.56-25.59-.33c-1,0-2,2-3,3.09,1.21.84,2.35,2.29,3.62,2.4C247,51.7,251,51.54,255,51.57Z"/><path d="M216.85,35.63,207.79,43l-.11,13.25L178.88,56,179,42.22c-2.81-1.38-6.09-1.9-7-3.64-2.3-4.49-5.6-10-4.58-14.16.84-3.45,7-7.22,11.27-7.88a120.84,120.84,0,0,1,28.75-1c3.93.34,9.07,4.19,10.76,7.79,1.51,3.24-1,8.33-1.66,12.61a22.74,22.74,0,0,1,.28-3.31c2.25-9.88-2.61-14.9-12.68-14.18-8,.58-16.1-.82-24,.21-4,.52-9.76,3.82-10.71,7s2.66,8.22,5.23,11.74c2.11,2.9,5.63,4.77,10.23,8.47l18.6.15C205.22,39.88,205.22,39.88,216.85,35.63ZM205.39,54c-5.06-6.36-21-6.05-24.17-.21Z"/><path d="M297.58,22.59c8.6-.85,17.19-1.75,25.79-2.48,1.31-.11,2.89,1.16,4,.78,8.79-3,13.93,1.26,16.42,8.83s-.85,12-11,16c-.22.09-.35.38-1,1.07l-.11,13.7-28.87-.24.11-14.1c-7.12-2.57-13.07-6.17-12-13.87.51-3.58,4.49-6.68,6.9-10-8.26,11.45-6.47,17.12,7,21.79.45,2.62.92,5.27,1.38,7.92l22.12.18c.44-3,.84-5.69,1.22-8.31l3.83-1c6.09-1.5,9.84-5.14,8.44-11.6s-5.46-9-12.54-8.59C318.78,23.36,308.16,22.71,297.58,22.59Zm30.45,36L327.94,57l-22.35-.19c0,.54,0,1.08.07,1.62Z"/><path class="cls-1" d="M283.83,6.9c.61,1.55,1.15,3.14,1.84,4.65,5,11,.49,18.16-13.64,20.43-.47,3-1,6.28-1.57,10.09l-30.26-.25c-.41-3.32-.82-6.58-1.25-10.1-2.68-.68-5.67-.83-8-2.15-5.8-3.32-8.32-8.79-6.71-15.19C225.76,8.33,230,5,236.73,4.74c5.64-.23,11.24-1.3,16.86-2a9.56,9.56,0,0,1,2.49-.47c9.36,1.61,18.71,3.29,28.06,5Z"/><path class="cls-1" d="M255,51.57c-4,0-8,.13-11.94-.21-1.27-.11-2.41-1.56-3.62-2.4,1-1.08,2-3.08,3-3.09q12.79-.23,25.59.33c1,0,1.84,2.17,2.76,3.33-1,.75-1.95,2.1-3,2.15-4.25.21-8.53,0-12.79,0Z"/><path class="cls-1" d="M216.85,35.63c-11.63,4.25-11.63,4.25-13.31,10.41l-18.6-.15c-4.6-3.7-8.12-5.57-10.23-8.47-2.57-3.52-6.17-8.56-5.23-11.74s6.7-6.52,10.71-7c7.86-1,16,.37,24-.21,10.07-.72,14.93,4.3,12.68,14.18a22.74,22.74,0,0,0-.28,3.31Z"/><path class="cls-1" d="M205.39,54l-24.17-.21C184.39,48,200.33,47.67,205.39,54Z"/><path class="cls-1" d="M297.58,22.59c10.58.12,21.2.77,31.73.16,7.08-.41,11.17,2.27,12.54,8.59s-2.35,10.1-8.44,11.6l-3.83,1c-.38,2.62-.78,5.31-1.22,8.31L306.24,52c-.46-2.65-.93-5.3-1.38-7.92-13.47-4.67-15.26-10.34-7-21.79Z"/><path class="cls-1" d="M328,58.59l-22.37-.19c0-.54-.05-1.08-.07-1.62l22.35.19Z"/><path class="cls-2" d="M68.42,122.09l-1.19,5.64-5.37-1a28.09,28.09,0,0,1-3.41,7,30.44,30.44,0,0,1-5.35,5.95l3.55,6.38-4.63,4L48.15,143a28.79,28.79,0,0,1-7.41,2.9,35.37,35.37,0,0,1-8.44,1l-1.56,7.64L25,153.37l1.77-7.18a21.2,21.2,0,0,1-5.91-2,22.57,22.57,0,0,1-5.16-3.73l-5.8,5.18-3.66-4,6.29-5a36.68,36.68,0,0,1-2.66-4.72,47.53,47.53,0,0,1-2.17-5.53L1.4,127.74,0,123l6.88-1.37a21.82,21.82,0,0,1-.4-2.51,23.27,23.27,0,0,1-.14-2.5l4-.94a21.88,21.88,0,0,0,7.82,13.56,22,22,0,0,0,14.43,5.36,15.42,15.42,0,0,0,11.67-5A17.4,17.4,0,0,0,49,117.19q0-10.81-6.1-16.37T24.56,94.93L52.81,61.22,11,69,6.88,47.77l55.49,2.94,3.68,8.91L41.17,89.86a29.75,29.75,0,0,1,3.89.22,15.65,15.65,0,0,1,2.83.63L52,85.58,56.11,89l-3.55,3.93a20.36,20.36,0,0,1,4.11,3.73,23.55,23.55,0,0,1,3.25,5.1l6-3.19,2,4.21-6.13,3.59a43,43,0,0,1,1.48,8,28.29,28.29,0,0,1-.24,6.89Z"/><path class="cls-2" d="M161.93,66.09q0,9-5.11,14.38T143.33,85.9a22.64,22.64,0,0,1-6.47-.89,16.77,16.77,0,0,1-5.46-2.77,13.28,13.28,0,0,1-4.11-4.91,14.61,14.61,0,0,1-1.37-6.39,12.86,12.86,0,0,1,1-5.26,9.81,9.81,0,0,1,3.12-3.9,14.16,14.16,0,0,1,4.22-2.16,17.41,17.41,0,0,1,5.24-.74,12.48,12.48,0,0,1,3.38.46,8.12,8.12,0,0,1,2.85,1.42,7.82,7.82,0,0,1,2.18,2.6,7.41,7.41,0,0,1,.72,3.33,6,6,0,0,1-2,4.56A6.59,6.59,0,0,1,142,73.07a6.25,6.25,0,0,1-2.9-.62,4.22,4.22,0,0,1-1.83-2,5.35,5.35,0,0,0,.92.17,7.05,7.05,0,0,0,.86.06,4.55,4.55,0,0,0,2.79-.71,3.15,3.15,0,0,0,0-4.5,4.56,4.56,0,0,0-2.9-.77,8.18,8.18,0,0,0-2.48.37,5.53,5.53,0,0,0-2,1.11,5.94,5.94,0,0,0-1.56,2,5.47,5.47,0,0,0-.53,2.43q0,4.22,2.58,6.26t7.73,2.06a10.19,10.19,0,0,0,8.17-3.68,13.56,13.56,0,0,0,3.12-9.09,11.77,11.77,0,0,0-1.42-5.81,13.09,13.09,0,0,0-4.22-4.45,16.17,16.17,0,0,0-5.13-2.33,23.77,23.77,0,0,0-6.1-.74,24.35,24.35,0,0,0-7.26,1,16.86,16.86,0,0,0-5.8,3.13,14.73,14.73,0,0,0-4.14,5.47,18.06,18.06,0,0,0-1.4,7.29A14.41,14.41,0,0,0,121,77.76a30.14,30.14,0,0,0,7.74,7.61q4.83,3.48,9.62,6.89L148,99.1a33,33,0,0,1,7.73,10.62,30.3,30.3,0,0,1,2.58,12.5,28.61,28.61,0,0,1-2.12,11.33,22.5,22.5,0,0,1-6.41,8.58,29.08,29.08,0,0,1-8.94,5.08,32.7,32.7,0,0,1-11,1.77,40.09,40.09,0,0,1-8.79-.91,28.06,28.06,0,0,1-7.4-2.8,16.7,16.7,0,0,1-6.24-5.79,15.27,15.27,0,0,1-2.1-8.08q0-7,3.57-11.29c2.39-2.87,5.74-4.3,10.08-4.3a13.65,13.65,0,0,1,4.78.8,13.44,13.44,0,0,1,3.93,2.27,10,10,0,0,1,2.87,3.75,11.82,11.82,0,0,1,.94,4.78c0,3.28-.73,5.72-2.2,7.34s-3.71,2.43-6.72,2.43a6.51,6.51,0,0,1-4.22-1.45,4.7,4.7,0,0,1-1.8-3.85,4.85,4.85,0,0,1,.94-3.25,3.55,3.55,0,0,1,2.82-1.08l.49,0a4.71,4.71,0,0,0,.53,0,3.67,3.67,0,0,0-1,1.08,2.24,2.24,0,0,0-.32,1.14,2,2,0,0,0,.64,1.65,2.92,2.92,0,0,0,1.88.52,2.39,2.39,0,0,0,2.07-.94,5,5,0,0,0,.67-2.88,5.05,5.05,0,0,0-.56-2.37,5.79,5.79,0,0,0-1.75-1.91,7.17,7.17,0,0,0-2.18-1,9.19,9.19,0,0,0-2.55-.34,6.88,6.88,0,0,0-5.59,2.25q-1.87,2.25-1.88,6.64a9.12,9.12,0,0,0,1.13,4.56,9.75,9.75,0,0,0,3.33,3.41,13.31,13.31,0,0,0,4.09,1.77,19.62,19.62,0,0,0,4.83.57,14.81,14.81,0,0,0,6-1.2A13.74,13.74,0,0,0,135,136.9a16.53,16.53,0,0,0,3.15-5.31,19,19,0,0,0,1-6.5,17.71,17.71,0,0,0-2.18-8,39.37,39.37,0,0,0-6.64-8.92q-4-4.16-8.09-8.21T114.1,91.8A40.44,40.44,0,0,1,107.54,82a22.53,22.53,0,0,1-2.2-9.43,30.15,30.15,0,0,1,2.26-12.07,22.2,22.2,0,0,1,6.72-8.77A27.37,27.37,0,0,1,123.71,47a43.07,43.07,0,0,1,12.07-1.56,34.3,34.3,0,0,1,9.32,1.22,27.53,27.53,0,0,1,8.08,3.73,20.1,20.1,0,0,1,6.57,6.88A17.91,17.91,0,0,1,161.93,66.09Z"/><path class="cls-2" d="M192,151.49l-22.62-3.11,8.38-55.48h10.1Zm1.83-72.32-1.34,3.48-4.68-2.57a6.91,6.91,0,0,1-1.67,1.66,6.5,6.5,0,0,1-2,.91l1.08,4.67-3.66.57-.91-4.9a5.5,5.5,0,0,1-1.7-.66,11.26,11.26,0,0,1-1.58-1.11l-3.55,3.48-2.47-3,4.14-3.19a5.87,5.87,0,0,1-.62-2.28,10,10,0,0,1,.19-2.57l-4.78-3.19L172,67.37l4.41,3.2a7,7,0,0,1,1.47-1.46,6.81,6.81,0,0,1,1.91-.94l-.91-6.72h3.44l.21,6.27a8.57,8.57,0,0,1,2.15.57,8.22,8.22,0,0,1,1.83,1l3.76-3.19,2.47,2.62-4.3,3.08a4.43,4.43,0,0,1,.6,1.94,23.39,23.39,0,0,1,.1,3.3Zm-8.2,58.33a5.2,5.2,0,0,0-1.45-3.71,4.72,4.72,0,0,0-3.55-1.54,4.57,4.57,0,0,0-3.43,1.54,5.21,5.21,0,0,0-1.46,3.71,5.1,5.1,0,0,0,1.46,3.67,4.58,4.58,0,0,0,3.43,1.51,4.73,4.73,0,0,0,3.55-1.51A5.09,5.09,0,0,0,185.6,137.5Zm0-15.45a4.32,4.32,0,0,0-.94-3,3.7,3.7,0,0,0-2.87-1,3.91,3.91,0,0,0-3,1,4.28,4.28,0,0,0-1,3,4.36,4.36,0,0,0,1,3.08,3.91,3.91,0,0,0,3,1,3.71,3.71,0,0,0,2.87-1A4.4,4.4,0,0,0,185.6,122.05Z"/><path class="cls-3" d="M242.87,101.14c0,3.14-.65,5.48-1.93,7a7.12,7.12,0,0,1-5.79,2.31,8.36,8.36,0,0,1-5.26-1.4,5,5,0,0,1-1.75-4.19,4.53,4.53,0,0,1,.7-2.48,5.77,5.77,0,0,1,2.1-1.91l1.55,1.23a4.37,4.37,0,0,0-.59.88,1.82,1.82,0,0,0-.21.82,2,2,0,0,0,.64,1.66,2.87,2.87,0,0,0,1.88.54,3.27,3.27,0,0,0,2.53-.88,3.94,3.94,0,0,0,.81-2.74,5.1,5.1,0,0,0-.73-2.67,6,6,0,0,0-2.17-2,9.18,9.18,0,0,0-2.49-1,12.61,12.61,0,0,0-3-.34,11.74,11.74,0,0,0-3.69.54,10.82,10.82,0,0,0-3.1,1.62,7.48,7.48,0,0,0-2.32,2.84,8.82,8.82,0,0,0-.75,3.69,6.37,6.37,0,0,0,1.45,3.91,17.93,17.93,0,0,0,4.24,3.79q5.05,3.42,7.72,5.18c1.77,1.18,2.71,1.83,2.82,1.94a17.3,17.3,0,0,1,4.3,5.56,15.37,15.37,0,0,1,1.39,6.58,21.42,21.42,0,0,1-1.69,8.67,17.79,17.79,0,0,1-5.18,6.74,22.63,22.63,0,0,1-7.11,4,26.19,26.19,0,0,1-8.62,1.37,22.1,22.1,0,0,1-5.86-.77,22.78,22.78,0,0,1-5.44-2.3,19.18,19.18,0,0,1-4.71-3.75,20.83,20.83,0,0,1-3.36-5.06l4-4a18.4,18.4,0,0,0,6.07,7.29,14.55,14.55,0,0,0,8.27,2.4,9.53,9.53,0,0,0,6.95-2.66,9.43,9.43,0,0,0,2.71-7.06,13.46,13.46,0,0,0-1.21-5.56,18.5,18.5,0,0,0-3.68-5.27c-1.51-1.4-3-2.81-4.57-4.21l-4.62-4.22a19.85,19.85,0,0,1-3.66-5.47,15,15,0,0,1-1.23-6,14.61,14.61,0,0,1,1.56-6.82,15.54,15.54,0,0,1,4.57-5.29,17.39,17.39,0,0,1,5.9-2.9,28.09,28.09,0,0,1,12.82-.32,16.9,16.9,0,0,1,4.56,1.74,9.69,9.69,0,0,1,3.88,3.75A10.49,10.49,0,0,1,242.87,101.14ZM214.09,127a6.87,6.87,0,0,1-1.94,4.93,6.26,6.26,0,0,1-9.24,0,7.16,7.16,0,0,1,0-9.8,6.23,6.23,0,0,1,9.24,0A6.9,6.9,0,0,1,214.09,127Z"/><path class="cls-2" d="M292.69,96.38l-.81,5.93-10.75.85-.8,6.84,11.55.34-2.2,8.09-10.27-.68-4,31.4-7.9,1.48-1-33.91-9.67-.74,1.61-6.44,8,.18-.27-5.36-10.26.85-2.31-8.83h12.3l-.53-19.83,19.78-2.39-2.91,22.22Zm-13.95-9.09a5,5,0,0,0-1.1-3.5,5.25,5.25,0,0,0-6.61,0,4.9,4.9,0,0,0-1.1,3.5,5,5,0,0,0,1.1,3.56,5.25,5.25,0,0,0,6.61,0A5,5,0,0,0,278.74,87.29Zm-1.93,14a4,4,0,0,0-.84-2.79,3.27,3.27,0,0,0-2.55-.91,3.44,3.44,0,0,0-2.63.91,3.92,3.92,0,0,0-.86,2.79,3.72,3.72,0,0,0,.86,2.71,3.51,3.51,0,0,0,2.63.88A3.33,3.33,0,0,0,276,104,3.81,3.81,0,0,0,276.81,101.31Z"/><path class="cls-2" d="M354.71,140.63l-2.42,2.53c-.72.74-1.35,1.34-1.88,1.79l4,6.37-3.77,2.33-4.08-5.35a26.46,26.46,0,0,1-4.57,2.31,21.42,21.42,0,0,1-5.16,1.27l-.11,6.73-4.83-.34.43-6.21a27.86,27.86,0,0,1-5.27-.55,41.58,41.58,0,0,1-5.86-1.62l-3,6.84-4.83-2.79,3.28-6.39a27.06,27.06,0,0,1-4.82-3.56A24.37,24.37,0,0,1,308,139.4l-5.75,3.88-2.42-4.05,6.29-3.47a31.9,31.9,0,0,1-1.93-5.62,35.79,35.79,0,0,1-.92-5.89l-5.75,1.53-1.66-5,7.41-1.77a36.25,36.25,0,0,1,.92-5.75,21.54,21.54,0,0,1,1.66-4.56l-5.21-3.31,2.47-4.33,5.11,3.76a22.87,22.87,0,0,1,2.93-3.19,21.86,21.86,0,0,1,3.36-2.5l-4.41-6.79,4.84-2.5,3.54,7.23c1.15-.37,2.19-.68,3.12-.91s1.75-.4,2.47-.51l1.45-7.47,3.82,1.26-1,5.92a14.44,14.44,0,0,1,4.09.58,14.23,14.23,0,0,1,3.7,1.71l5.32-5.59,3,2.68-5.05,5.82a16,16,0,0,1,2.21,2.88,23.63,23.63,0,0,1,1.82,3.74l6.29-2.23,1.08,4.22-6.08,2.23a21.34,21.34,0,0,1,.73,2.74c.19,1,.38,2.05.56,3.19l-25,4.62v.62a35.68,35.68,0,0,0,.83,7.83,29.24,29.24,0,0,0,2.55,7,15.69,15.69,0,0,0,4.89,5.89,11,11,0,0,0,6.39,2,17,17,0,0,0,7.68-2.05,38.69,38.69,0,0,0,8.54-6.27Zm-22-28a5.18,5.18,0,0,0-1.74-3.76,6.78,6.78,0,0,0-4.38-1.25,10.76,10.76,0,0,0-6.51,2.22,11,11,0,0,0-4.08,5.7Z"/><path class="cls-2" d="M415,100.8l-5.21,2c0,.3,0,.76.05,1.37s.06,1.08.06,1.42a12,12,0,0,1-.3,2.76,9.43,9.43,0,0,1-.88,2.37l4.62,3.48-2.91,3-4.09-3.5a14.49,14.49,0,0,1-2,1.61c-.74.5-1.55,1-2.45,1.5l-2.74-4a8.76,8.76,0,0,0,1.26-2.27,6.76,6.76,0,0,0,.4-2.28,4.24,4.24,0,0,0-1.5-3.52,7.24,7.24,0,0,0-4.52-1.19q-3.33,0-7.09,3.79a52.53,52.53,0,0,0-8,11.31l.81,31.34-18.43-2.93,8.35-53.63,8.52-1.85.43,16.81q1.72-2.56,3.33-4.56a41.52,41.52,0,0,1,3.12-3.47l-2.31-5.53,3.65-2,1.94,4.73a26.15,26.15,0,0,1,3.84-2,18,18,0,0,1,4-1.17l.16-5.7,3.92.4-.81,5.19a11,11,0,0,1,5.15,1.45,8.36,8.36,0,0,1,3.25,3.6l4.91-2.73Zm-38.85,37.27a4.93,4.93,0,0,0-1.27-3.4,4,4,0,0,0-3.09-1.39,4.12,4.12,0,0,0-3.09,1.39,5.5,5.5,0,0,0-.21,6.87,4.38,4.38,0,0,0,3.3,1.14,4.3,4.3,0,0,0,3.31-1.14A5,5,0,0,0,376.18,138.07Zm.27-14a3.83,3.83,0,0,0-.87-2.7,3.44,3.44,0,0,0-2.68-.94,3.26,3.26,0,0,0-2.53.94,3.87,3.87,0,0,0-.86,2.7,3.77,3.77,0,0,0,.86,2.71,3.39,3.39,0,0,0,2.53.88,3.58,3.58,0,0,0,2.68-.88A3.72,3.72,0,0,0,376.45,124.1Z"/><path class="cls-4" d="M451.61,102.13c0,3.15-.65,5.49-1.93,7a7.12,7.12,0,0,1-5.79,2.3,8.36,8.36,0,0,1-5.26-1.39,5,5,0,0,1-1.75-4.19,4.53,4.53,0,0,1,.7-2.48,5.73,5.73,0,0,1,2.09-1.91l1.56,1.23a4.62,4.62,0,0,0-.59.87,1.88,1.88,0,0,0-.21.82,2,2,0,0,0,.64,1.67,2.87,2.87,0,0,0,1.88.54,3.27,3.27,0,0,0,2.53-.88,4,4,0,0,0,.81-2.75,5.06,5.06,0,0,0-.73-2.66,6,6,0,0,0-2.17-2,9.18,9.18,0,0,0-2.49-1,12.61,12.61,0,0,0-3-.34,11.74,11.74,0,0,0-3.69.54,10.82,10.82,0,0,0-3.1,1.62,7.48,7.48,0,0,0-2.32,2.84,8.82,8.82,0,0,0-.75,3.69,6.41,6.41,0,0,0,1.45,3.91,17.73,17.73,0,0,0,4.24,3.79q5.06,3.42,7.71,5.18c1.78,1.18,2.72,1.82,2.83,1.94a17.37,17.37,0,0,1,4.3,5.55,15.41,15.41,0,0,1,1.39,6.59,21.46,21.46,0,0,1-1.69,8.67,17.78,17.78,0,0,1-5.18,6.73,22.86,22.86,0,0,1-7.11,4,26.19,26.19,0,0,1-8.62,1.37,22.1,22.1,0,0,1-5.86-.77,22.78,22.78,0,0,1-5.44-2.3,19.66,19.66,0,0,1-4.71-3.75,20.83,20.83,0,0,1-3.36-5.06l4-4a18.54,18.54,0,0,0,6.07,7.29,14.54,14.54,0,0,0,8.27,2.39,9.2,9.2,0,0,0,9.66-9.71,13.46,13.46,0,0,0-1.21-5.56,18.7,18.7,0,0,0-3.68-5.27q-2.26-2.1-4.57-4.22l-4.62-4.21a19.85,19.85,0,0,1-3.66-5.47,15,15,0,0,1-1.23-6,14.61,14.61,0,0,1,1.56-6.82,15.54,15.54,0,0,1,4.57-5.29,17.6,17.6,0,0,1,5.9-2.91,26.47,26.47,0,0,1,7.07-.91,25.3,25.3,0,0,1,5.74.6,17.17,17.17,0,0,1,4.57,1.73,9.77,9.77,0,0,1,3.88,3.76A10.56,10.56,0,0,1,451.61,102.13ZM422.83,128a6.87,6.87,0,0,1-1.94,4.93,6.26,6.26,0,0,1-9.24,0,7.16,7.16,0,0,1,0-9.8,6.23,6.23,0,0,1,9.24,0A6.88,6.88,0,0,1,422.83,128Z"/></g></g></svg>